<?xml version="1.0" encoding="UTF-8" standalone="no"?>
<!DOCTYPE svg PUBLIC "-//W3C//DTD SVG 1.1//EN" "http://www.w3.org/Graphics/SVG/1.1/DTD/svg11.dtd">
<svg width="100%" height="100%" viewBox="0 0 98 147" version="1.1" xmlns="http://www.w3.org/2000/svg" xmlns:xlink="http://www.w3.org/1999/xlink" xml:space="preserve" xmlns:serif="http://www.serif.com/" style="fill-rule:evenodd;clip-rule:evenodd;stroke-linejoin:round;stroke-miterlimit:2;">
    <g transform="matrix(1,0,0,1,-462.633,-804.474)">
        <g transform="matrix(1,0,0,1,-87.3988,343.836)">
            <rect x="589.559" y="460.639" width="18.144" height="9.072" style="fill:rgb(154,0,50);"/>
        </g>
        <g transform="matrix(1,0,0,1,-85.1956,344.095)">
            <rect x="618.589" y="460.379" width="10.627" height="13.219" style="fill:rgb(154,0,50);"/>
        </g>
        <g transform="matrix(1,0,0,1,-140.145,344.095)">
            <rect x="618.589" y="460.379" width="10.627" height="13.219" style="fill:rgb(154,0,50);"/>
        </g>
        <g transform="matrix(1,0,0,0.875883,-87.01,409.91)">
            <rect x="549.643" y="605.788" width="97.198" height="12.182" style="fill:rgb(154,0,50);"/>
        </g>
        <g transform="matrix(0.781547,0,0,0.778553,43.6779,455.176)">
            <rect x="549.643" y="605.788" width="97.198" height="12.182" style="fill:rgb(154,0,50);"/>
        </g>
        <g transform="matrix(1,0,0,1,-85.4548,343.836)">
            <rect x="563.899" y="468.414" width="65.576" height="40.175" style="fill:rgb(154,0,50);"/>
        </g>
        <g transform="matrix(1.22755,0,0,0.791567,-222.182,450.349)">
            <rect x="575.822" y="512.478" width="43.286" height="84.757" style="fill:rgb(154,0,50);"/>
        </g>
    </g>
</svg>
